<?xml version="1.0" standalone="no"?>
<!DOCTYPE svg PUBLIC "-//W3C//DTD SVG 20010904//EN"
 "http://www.w3.org/TR/2001/REC-SVG-20010904/DTD/svg10.dtd">
<svg version="1.0" xmlns="http://www.w3.org/2000/svg"
 width="1200.000000pt" height="573.000000pt" viewBox="0 0 1200.000000 573.000000"
 preserveAspectRatio="xMidYMid meet">
<metadata>
Created by potrace 1.16, written by Peter Selinger 2001-2019
</metadata>
<g transform="translate(0.000000,573.000000) scale(0.100000,-0.100000)"
fill="#000000" stroke="none">
<path d="M8890 5031 c0 -11 4 -21 9 -23 4 -1 11 -41 15 -88 12 -172 19 -235
25 -240 12 -9 31 -203 31 -317 0 -64 4 -114 10 -118 6 -3 10 -20 10 -36 0 -27
3 -30 27 -27 43 5 61 42 69 142 3 50 12 96 19 102 7 7 16 46 20 86 4 47 15 87
29 113 23 41 56 59 56 32 0 -9 9 -26 20 -39 11 -12 40 -51 66 -85 25 -35 51
-63 57 -63 59 1 203 23 215 33 11 9 99 12 356 12 302 0 345 -2 377 -17 20 -10
76 -22 124 -27 49 -6 93 -15 99 -21 5 -5 16 -10 24 -10 26 0 112 45 112 58 0
7 8 16 18 19 9 4 27 16 39 27 66 64 83 60 83 -19 0 -18 5 -35 11 -37 8 -3 16
-59 22 -153 6 -83 15 -153 20 -156 12 -8 12 -560 -1 -568 -5 -3 -13 -51 -17
-106 -3 -55 -13 -113 -21 -129 -7 -15 -16 -51 -20 -80 -3 -28 -12 -60 -19 -71
-7 -12 -18 -48 -25 -80 -7 -33 -18 -67 -25 -75 -7 -8 -16 -32 -20 -52 -4 -21
-13 -42 -21 -49 -8 -6 -14 -18 -14 -27 0 -9 -23 -61 -51 -116 -74 -147 -93
-180 -106 -189 -7 -4 -13 -17 -13 -28 0 -11 -7 -22 -15 -25 -8 -4 -15 -12 -15
-19 0 -8 -11 -27 -25 -43 -14 -17 -25 -35 -25 -41 0 -6 -8 -19 -17 -29 -10 -9
-26 -29 -35 -42 -10 -14 -33 -47 -53 -75 -19 -27 -35 -56 -35 -62 0 -7 -7 -13
-15 -13 -8 0 -15 -4 -15 -10 0 -5 -20 -38 -45 -73 -25 -36 -45 -70 -45 -76 0
-6 -4 -11 -9 -11 -5 0 -13 -9 -16 -20 -7 -23 -18 -25 -37 -7 -7 8 -23 19 -36
26 -12 6 -22 18 -22 26 0 8 -7 15 -15 15 -9 0 -20 11 -25 25 -5 14 -14 25 -20
25 -6 0 -15 11 -20 25 -5 14 -14 25 -19 25 -5 0 -16 16 -25 35 -9 19 -21 35
-25 35 -5 0 -11 10 -15 23 -5 21 -12 33 -62 95 -11 15 -34 50 -50 77 -15 28
-32 52 -36 53 -4 2 -8 7 -8 12 0 13 -63 114 -77 123 -7 4 -13 14 -13 21 0 17
-23 66 -32 66 -3 0 -9 13 -13 30 -4 16 -12 33 -19 37 -7 5 -15 15 -18 24 -5
14 -38 17 -233 23 -125 4 -228 6 -231 3 -2 -2 7 -17 21 -33 14 -16 25 -35 25
-42 0 -7 6 -15 14 -18 8 -3 17 -17 21 -31 3 -14 17 -40 31 -58 13 -17 24 -36
24 -41 0 -5 9 -17 20 -27 11 -9 20 -24 20 -32 0 -8 5 -15 10 -15 6 0 10 -5 10
-12 0 -6 11 -26 25 -44 14 -18 25 -38 25 -44 0 -6 7 -13 15 -16 8 -4 15 -11
15 -18 0 -6 21 -42 46 -81 26 -38 50 -80 55 -92 5 -13 12 -23 17 -23 5 0 15
-18 22 -40 7 -22 19 -40 27 -40 7 0 13 -9 13 -19 0 -11 9 -26 19 -33 11 -8 23
-26 26 -41 4 -15 10 -27 15 -27 4 0 15 -19 26 -42 10 -24 24 -47 31 -51 7 -4
13 -14 13 -20 0 -7 26 -41 57 -76 48 -53 57 -69 54 -95 -3 -27 -32 -81 -52
-96 -3 -3 -30 -25 -59 -50 -91 -78 -204 -160 -227 -166 -13 -4 -23 -12 -23
-20 0 -8 -4 -14 -9 -14 -5 0 -33 -19 -63 -43 -64 -51 -194 -137 -207 -137 -6
0 -14 -6 -18 -12 -8 -13 -31 -28 -90 -59 -17 -9 -39 -23 -48 -33 -9 -9 -25
-16 -35 -16 -10 0 -22 -5 -25 -10 -3 -6 -26 -19 -50 -30 -24 -11 -46 -24 -50
-29 -3 -5 -18 -12 -34 -16 -16 -3 -35 -12 -41 -20 -6 -7 -33 -19 -60 -25 -27
-6 -51 -18 -54 -25 -2 -7 -23 -16 -45 -20 -21 -3 -42 -13 -45 -20 -2 -8 -25
-17 -50 -20 -25 -4 -46 -11 -46 -15 0 -4 -20 -13 -45 -20 -25 -7 -45 -16 -45
-21 0 -4 -20 -11 -45 -15 -26 -3 -51 -12 -58 -18 -7 -7 -32 -17 -57 -23 -83
-21 -215 -63 -232 -73 -10 -5 -42 -13 -72 -16 -59 -7 -85 -18 -72 -31 10 -11
285 -9 311 1 23 10 26 11 125 27 41 6 78 16 81 21 3 5 34 13 69 19 36 6 69 14
75 18 5 5 44 17 85 26 41 10 82 24 91 32 8 7 23 13 33 13 9 0 42 11 72 25 30
14 59 25 64 25 6 0 18 4 28 9 47 26 150 71 160 71 7 0 12 4 12 9 0 4 20 14 44
21 25 7 47 18 50 25 2 7 17 15 33 18 15 3 39 15 51 26 13 11 37 23 53 26 17 4
33 13 36 20 2 8 18 17 34 20 16 4 29 11 29 16 0 6 14 15 30 20 17 6 30 14 30
18 0 3 15 13 33 20 17 8 38 21 45 28 7 7 20 13 28 13 8 0 14 5 14 10 0 6 5 10
10 10 9 0 65 35 80 50 16 16 88 60 98 60 7 0 12 6 12 14 0 8 14 19 32 25 17 6
39 18 47 25 9 8 28 26 43 39 14 13 33 27 42 30 9 4 16 11 16 17 0 5 7 10 15
10 8 0 20 9 27 20 7 11 17 20 23 20 18 1 265 234 265 250 0 5 7 10 16 10 9 0
18 9 21 20 3 11 10 20 15 20 12 0 78 70 78 82 0 4 5 8 11 8 9 0 52 43 162 163
15 16 27 34 27 38 0 5 6 9 14 9 7 0 16 8 20 18 8 24 29 56 44 65 6 4 12 14 12
22 0 8 6 18 13 22 7 4 27 31 45 58 17 28 38 57 47 66 8 9 15 21 15 27 0 7 4
12 8 12 5 0 17 17 28 37 10 21 24 43 31 50 6 7 16 28 23 47 6 19 17 37 24 39
8 3 16 22 20 41 4 20 11 36 16 36 6 0 10 6 10 13 0 7 13 39 30 72 16 33 30 68
30 78 0 9 4 25 10 35 13 22 39 96 51 146 5 21 14 47 20 58 5 10 19 64 29 120
11 55 24 105 29 112 5 6 12 40 16 75 4 35 14 79 21 97 19 45 19 323 0 435 -8
46 -17 113 -21 149 -3 36 -12 88 -20 115 -7 28 -19 84 -25 125 -7 41 -16 80
-20 85 -5 6 -13 39 -20 75 -6 36 -17 76 -25 90 -7 14 -16 58 -20 98 -4 39 -11
72 -16 72 -5 0 -9 19 -9 43 0 23 -3 59 -6 80 l-7 38 -86 -7 c-47 -4 -87 -11
-89 -15 -2 -5 -9 -9 -16 -9 -7 0 -25 -13 -41 -30 -16 -16 -32 -30 -37 -30 -4
0 -16 -8 -26 -17 -54 -52 -93 -83 -104 -83 -7 0 -24 -9 -38 -20 -26 -20 -60
-27 -60 -11 0 8 -48 17 -150 28 -30 3 -61 10 -69 17 -22 17 -573 15 -594 -3
-21 -17 -224 -22 -235 -5 -4 6 -18 15 -32 19 -14 4 -41 25 -60 46 -20 22 -39
39 -44 39 -5 0 -23 16 -42 35 -18 19 -37 35 -42 35 -6 0 -12 3 -14 8 -7 15
-69 53 -98 58 -16 4 -30 10 -30 15 0 4 -26 13 -57 19 -32 6 -66 15 -75 20 -31
17 -68 12 -68 -9z"/>
<path d="M9580 4296 c-25 -7 -58 -18 -73 -24 -16 -7 -32 -12 -37 -12 -4 0 -10
-7 -14 -15 -3 -8 -10 -15 -16 -15 -13 0 -69 -61 -70 -76 0 -7 -6 -14 -14 -17
-8 -3 -17 -19 -21 -36 -4 -17 -11 -33 -16 -36 -12 -8 -12 -212 1 -220 6 -3 10
-19 10 -36 0 -18 7 -33 20 -41 11 -7 20 -18 20 -25 0 -7 6 -13 13 -13 7 0 20
-9 30 -20 9 -11 35 -23 58 -26 22 -4 43 -13 46 -20 3 -8 13 -14 22 -14 33 0
191 -55 191 -67 0 -7 5 -13 10 -13 6 0 10 -10 10 -22 0 -29 23 -95 38 -110 7
-7 12 -18 12 -25 0 -8 6 -16 14 -19 8 -3 16 -18 20 -34 3 -16 22 -44 42 -63
l37 -33 31 28 c17 15 36 28 43 28 7 0 13 7 13 15 0 8 6 15 13 15 7 0 27 12 44
28 17 15 45 38 62 52 17 14 36 41 42 60 29 95 65 126 136 118 41 -5 89 5 140
28 33 15 123 97 123 112 0 5 9 17 19 26 25 23 54 144 48 198 -9 71 -27 143
-37 146 -6 2 -10 9 -10 15 0 21 -52 86 -88 109 -59 39 -128 50 -210 34 -38 -7
-82 -20 -98 -28 -16 -8 -59 -30 -96 -49 -37 -18 -70 -39 -72 -46 -3 -7 -13
-13 -21 -13 -9 0 -23 -7 -31 -15 -21 -20 -44 -19 -42 3 3 30 -14 102 -25 102
-5 0 -15 6 -21 14 -10 13 -209 67 -237 65 -8 -1 -34 -7 -59 -13z m195 -72 c11
-4 22 -10 25 -14 3 -3 24 -11 46 -18 39 -11 42 -14 48 -58 3 -26 6 -62 6 -80
0 -18 5 -36 10 -39 6 -3 10 -49 10 -101 0 -90 -1 -95 -24 -103 -13 -5 -26 -17
-29 -25 -4 -9 -13 -16 -20 -16 -8 0 -25 -10 -39 -23 -52 -48 -104 -67 -184
-67 -57 0 -76 4 -80 15 -4 8 -12 15 -20 15 -31 0 -108 72 -136 128 -37 74 -38
141 -3 216 39 84 141 174 214 185 39 7 144 -2 176 -15z m612 -13 c64 -34 143
-129 169 -203 4 -10 10 -18 15 -18 5 0 9 -29 9 -65 0 -46 -6 -75 -20 -101 -30
-53 -73 -104 -87 -104 -7 0 -21 -8 -31 -17 -27 -28 -82 -43 -154 -43 -77 0
-125 15 -133 41 -4 10 -11 19 -16 19 -5 0 -9 8 -9 18 0 14 -11 21 -47 28 -48
9 -48 9 -51 52 -2 23 -7 42 -13 42 -5 0 -9 14 -9 30 0 17 5 30 10 30 6 0 10
27 10 61 0 35 7 75 16 95 21 44 92 124 110 124 8 0 14 4 14 8 0 15 74 31 125
27 28 -2 69 -13 92 -24z m-433 -387 c9 -3 16 -11 16 -16 0 -14 69 -76 92 -84
10 -3 18 -9 18 -13 0 -5 14 -14 30 -21 44 -18 43 -44 -11 -167 -11 -24 -19
-45 -19 -48 0 -3 -8 -14 -17 -26 -39 -48 -65 -69 -82 -69 -11 0 -21 -7 -25
-15 -3 -9 -18 -15 -39 -15 -33 0 -33 0 -51 73 -9 41 -23 83 -30 93 -7 10 -17
35 -21 54 -4 19 -15 43 -24 53 -15 18 -13 21 32 59 26 22 47 46 47 54 0 7 8
18 19 23 10 6 24 24 31 41 14 33 12 32 34 24z"/>
<path d="M9602 3999 c-12 -5 -22 -13 -22 -19 0 -5 -7 -10 -16 -10 -15 0 -16
-9 -10 -67 4 -37 9 -70 12 -73 3 -3 41 -7 85 -10 l79 -5 2 40 c2 58 -1 80 -12
83 -6 2 -10 9 -10 17 0 29 -69 58 -108 44z"/>
<path d="M10219 3952 c-38 -40 -57 -80 -42 -91 4 -3 17 -22 27 -42 l19 -37 61
5 c34 3 65 9 70 13 4 5 10 37 13 73 5 59 4 65 -18 81 -13 9 -31 16 -41 16 -10
0 -18 5 -18 10 0 22 -37 7 -71 -28z"/>
<path d="M4800 3673 c-19 -3 -39 -8 -45 -13 -13 -10 -63 -18 -160 -26 -44 -3
-84 -10 -89 -15 -6 -5 -18 -9 -28 -9 -17 0 -18 -49 -18 -1150 l0 -1150 205 2
206 3 2 370 2 370 62 3 c69 3 103 -9 103 -37 0 -10 11 -30 25 -45 14 -15 25
-34 25 -42 0 -7 3 -14 8 -14 4 0 15 -17 25 -37 17 -38 37 -73 47 -83 3 -3 11
-17 19 -32 8 -15 22 -37 33 -47 10 -11 18 -26 18 -34 0 -7 8 -22 18 -33 9 -10
23 -31 29 -46 7 -16 17 -28 22 -28 5 0 12 -13 16 -29 3 -16 15 -37 25 -46 10
-9 22 -30 25 -46 4 -16 15 -34 25 -39 11 -6 22 -26 26 -45 3 -20 12 -35 20
-35 8 0 14 -7 14 -15 0 -13 34 -15 245 -15 211 0 245 2 245 15 0 8 -4 15 -9
15 -5 0 -12 14 -16 30 -4 17 -15 35 -26 40 -10 6 -19 18 -19 28 0 9 -11 30
-25 46 -14 16 -25 35 -25 42 0 7 -6 17 -12 21 -14 9 -37 46 -68 111 -12 23
-25 42 -30 42 -5 0 -12 11 -16 25 -3 14 -10 25 -15 25 -8 0 -18 17 -55 90 -10
19 -28 48 -41 63 -13 16 -23 35 -23 43 0 8 -3 14 -7 14 -5 0 -21 23 -38 51
-16 27 -38 59 -47 71 -10 12 -18 27 -18 34 0 7 -6 17 -13 21 -7 4 -21 25 -31
46 -9 20 -21 37 -25 37 -5 0 -11 14 -15 32 -5 26 -2 36 19 55 14 13 25 27 25
31 0 4 29 38 65 76 36 38 65 72 65 77 0 4 7 9 15 13 8 3 15 12 15 20 0 8 9 18
20 21 11 3 20 10 20 15 0 5 11 21 25 36 14 15 25 31 25 35 0 5 7 9 15 9 9 0
19 8 22 18 4 9 14 26 24 37 10 11 28 32 41 47 90 104 112 128 120 128 4 0 8
-207 8 -463 -1 -255 1 -470 4 -478 2 -8 9 -56 15 -107 9 -83 44 -209 62 -222
3 -3 9 -15 13 -27 18 -56 138 -182 194 -204 12 -5 22 -13 22 -18 0 -6 16 -13
35 -17 19 -3 37 -10 40 -14 3 -5 31 -14 63 -21 31 -7 63 -17 70 -22 15 -12
561 -11 576 2 6 5 38 11 71 15 67 7 145 18 253 37 l72 13 0 798 0 798 -215 0
-215 0 0 -629 0 -630 -47 -7 c-27 -4 -120 -7 -208 -8 -155 0 -162 1 -211 27
-58 30 -114 88 -114 117 0 10 -4 22 -10 25 -5 3 -10 24 -10 45 0 21 -4 42 -10
45 -6 4 -10 185 -10 511 l0 504 -433 0 -433 0 -23 -26 c-12 -14 -27 -36 -33
-50 -6 -13 -17 -24 -25 -24 -7 0 -13 -4 -13 -9 0 -11 -32 -52 -72 -92 -16 -15
-28 -32 -28 -38 0 -6 -9 -15 -20 -21 -11 -6 -20 -17 -20 -25 0 -7 -9 -17 -20
-20 -11 -3 -20 -12 -20 -18 0 -7 -9 -18 -20 -25 -11 -7 -20 -19 -20 -27 0 -8
-5 -15 -10 -15 -6 0 -13 -7 -17 -16 -3 -9 -15 -26 -27 -38 -18 -19 -83 -92
-130 -146 -7 -8 -16 -23 -19 -32 -4 -10 -13 -18 -22 -18 -8 0 -15 -6 -15 -14
0 -7 -11 -21 -25 -30 l-25 -16 0 720 c0 680 -1 720 -17 718 -10 0 -34 -3 -53
-5z"/>
<path d="M730 2475 l0 -1165 215 0 215 0 0 229 c0 127 -4 232 -9 235 -11 7
-14 1106 -2 1106 4 0 13 -11 19 -25 6 -14 16 -25 21 -25 5 0 12 -14 16 -30 4
-17 15 -36 26 -43 10 -6 19 -17 19 -24 0 -7 11 -24 25 -39 14 -15 25 -33 25
-40 0 -7 3 -14 8 -16 11 -5 72 -95 72 -106 0 -6 6 -17 13 -24 6 -7 18 -24 25
-39 7 -14 26 -39 42 -56 16 -17 32 -43 36 -57 3 -14 11 -26 18 -26 6 0 17 -12
24 -27 16 -38 50 -94 71 -118 10 -11 21 -28 24 -37 4 -10 11 -18 17 -18 5 0
10 -6 10 -13 0 -12 76 -136 90 -147 9 -7 70 -97 70 -104 0 -7 186 -287 204
-308 9 -10 16 -22 16 -26 0 -5 9 -17 20 -27 11 -10 20 -24 20 -31 0 -7 11 -26
25 -42 14 -17 25 -33 25 -38 0 -4 12 -25 26 -46 l27 -38 218 0 219 0 0 1165 0
1165 -220 0 -220 0 0 -379 c0 -243 4 -382 10 -386 12 -7 14 -815 3 -815 -10 1
-63 84 -63 98 0 6 -3 12 -8 14 -10 4 -76 99 -85 121 -3 9 -11 17 -16 17 -6 0
-16 18 -22 40 -7 22 -18 40 -26 40 -7 0 -13 6 -13 14 0 7 -11 25 -25 40 -14
15 -25 34 -25 42 0 7 -4 14 -8 14 -4 0 -18 20 -30 45 -12 25 -26 45 -31 45 -5
0 -12 11 -15 25 -4 14 -11 25 -16 25 -6 0 -10 5 -10 11 0 11 -60 92 -72 97 -5
2 -8 9 -8 16 0 16 -60 108 -77 119 -7 4 -13 14 -13 22 0 7 -11 27 -25 43 -14
17 -25 37 -25 45 0 9 -4 18 -9 22 -6 3 -45 58 -87 123 -43 64 -81 119 -84 122
-4 3 -10 15 -14 28 -4 12 -12 22 -17 22 -5 0 -9 7 -9 15 0 8 -4 15 -8 15 -4 0
-23 26 -42 58 -19 31 -40 63 -47 70 -7 7 -13 19 -13 27 0 7 -6 15 -14 18 -8 3
-20 22 -27 41 -7 20 -17 36 -21 36 -5 0 -13 11 -18 25 l-10 25 -215 0 -215 0
0 -1165z"/>
<path d="M3475 3003 c-22 -2 -42 -8 -45 -12 -3 -4 -45 -12 -94 -18 -49 -6 -91
-15 -95 -20 -3 -6 -23 -16 -43 -22 -21 -7 -38 -16 -38 -21 0 -4 -17 -15 -38
-23 -61 -24 -199 -168 -209 -218 -3 -15 -11 -30 -19 -33 -7 -3 -16 -22 -20
-43 -4 -21 -13 -42 -20 -48 -7 -5 -18 -50 -24 -100 -7 -49 -17 -101 -23 -114
-16 -33 -17 -389 -1 -399 7 -4 15 -41 19 -82 4 -41 15 -91 25 -112 10 -20 22
-53 26 -73 3 -20 12 -39 20 -42 7 -2 16 -18 19 -34 4 -15 22 -45 41 -66 18
-21 34 -41 34 -45 0 -4 9 -10 20 -13 11 -3 20 -12 20 -19 0 -7 11 -18 25 -24
14 -6 25 -16 25 -22 0 -5 5 -10 12 -10 6 0 25 -11 42 -23 17 -13 40 -26 51
-30 11 -3 45 -15 75 -26 30 -12 64 -21 75 -21 12 0 26 -5 32 -11 14 -14 389
-15 406 -1 7 5 26 12 42 15 44 7 165 52 173 63 4 5 19 15 35 21 15 7 27 17 27
23 0 5 6 10 13 10 19 1 92 71 111 108 9 17 21 32 26 32 6 0 10 5 10 11 0 6 15
36 34 68 18 32 39 82 46 112 8 30 17 59 21 64 4 6 15 82 25 171 17 155 17 167
0 320 -10 87 -22 163 -27 169 -5 5 -9 19 -9 32 0 13 -4 31 -9 41 -4 9 -26 53
-47 96 -39 79 -58 107 -101 151 -13 12 -23 27 -23 34 0 6 -5 11 -11 11 -6 0
-28 14 -49 30 -21 17 -42 30 -48 30 -5 0 -15 6 -21 14 -7 8 -24 17 -39 21 -15
4 -34 13 -43 21 -9 8 -56 20 -105 26 -49 7 -91 15 -94 19 -7 9 -182 18 -235
12z m240 -397 c51 -24 105 -68 105 -86 0 -4 3 -10 8 -12 22 -9 55 -99 60 -161
2 -37 9 -70 13 -73 12 -7 12 -271 0 -278 -4 -3 -11 -36 -14 -74 -7 -75 -24
-132 -38 -132 -5 0 -9 -5 -9 -12 0 -18 -50 -78 -66 -78 -7 0 -14 -7 -14 -15 0
-8 -9 -15 -19 -15 -11 0 -27 -8 -37 -17 -26 -27 -214 -25 -274 2 -46 21 -140
104 -140 124 0 7 -7 22 -15 35 -25 38 -38 195 -32 397 4 144 8 193 20 215 9
16 21 41 28 57 6 15 15 27 20 27 5 0 9 6 9 13 0 18 46 56 100 84 38 19 61 23
143 23 83 0 107 -4 152 -24z"/>
<path d="M8150 3003 c-14 -3 -27 -8 -30 -12 -3 -4 -39 -12 -80 -19 -41 -7 -77
-16 -80 -20 -3 -5 -21 -14 -40 -22 -19 -7 -40 -18 -45 -25 -6 -7 -20 -15 -33
-19 -12 -4 -22 -12 -22 -17 0 -5 -7 -9 -15 -9 -8 0 -15 -4 -15 -10 0 -5 -6
-10 -12 -10 -7 0 -26 -16 -43 -36 -16 -19 -43 -50 -60 -68 -28 -32 -74 -115
-109 -196 -22 -52 -46 -146 -58 -225 -14 -101 -4 -408 16 -464 9 -24 16 -53
16 -65 0 -11 6 -33 14 -48 8 -14 19 -42 26 -62 6 -20 16 -36 21 -36 5 0 9 -6
9 -13 0 -21 30 -77 41 -77 5 0 9 -5 9 -11 0 -13 105 -119 118 -119 4 0 19 -10
32 -22 39 -37 139 -88 171 -88 10 0 21 -4 24 -10 3 -5 19 -10 34 -10 15 0 31
-3 35 -7 11 -12 35 -13 209 -14 93 0 174 4 180 9 7 5 27 12 45 16 17 3 47 9
65 12 17 4 37 10 42 14 6 5 27 11 48 15 20 4 41 13 45 19 4 7 22 17 41 22 39
11 48 25 28 45 -7 8 -19 40 -26 72 -7 31 -16 57 -21 57 -4 0 -11 19 -15 43 -4
23 -14 56 -22 73 l-14 31 -37 -18 c-20 -11 -51 -19 -68 -19 -18 0 -34 -4 -36
-9 -1 -5 -34 -12 -73 -15 -38 -4 -90 -9 -113 -12 -48 -7 -192 14 -192 27 0 5
-7 9 -17 9 -25 0 -113 69 -113 89 0 6 -4 11 -8 11 -16 0 -53 96 -66 173 l-13
77 428 0 c428 0 428 0 449 22 11 12 20 28 20 35 0 7 5 13 10 13 6 0 13 8 17
18 3 9 19 33 35 53 15 20 28 42 28 48 0 6 5 11 10 11 13 0 13 120 0 196 -21
117 -32 169 -39 179 -4 6 -13 28 -20 50 -11 35 -55 110 -72 125 -3 3 -8 13
-12 23 -3 9 -13 17 -22 17 -8 0 -15 7 -15 15 0 9 -7 18 -16 22 -9 3 -28 17
-42 30 -15 13 -34 30 -42 38 -8 7 -28 17 -43 20 -15 4 -31 13 -35 21 -4 7 -41
18 -82 25 -41 7 -78 17 -81 22 -7 11 -228 19 -269 10z m262 -393 c15 -11 31
-20 35 -20 9 0 25 -18 59 -66 22 -31 44 -113 44 -164 0 -17 5 -30 10 -30 6 0
10 -5 10 -10 0 -7 -105 -9 -307 -8 l-308 3 4 45 c6 87 89 216 151 235 14 4 28
12 31 17 21 32 226 31 271 -2z"/>
<path d="M5344 1065 c-10 -8 -26 -15 -34 -15 -20 0 -83 -66 -98 -103 -16 -37
-15 -132 1 -159 33 -56 52 -68 111 -68 31 0 56 4 56 10 0 5 15 16 34 24 40 17
53 33 37 49 -9 9 -16 7 -29 -9 -31 -40 -81 -53 -138 -38 -36 10 -87 154 -55
154 5 0 12 15 15 34 5 25 16 41 41 56 19 12 35 26 35 31 0 5 27 9 59 9 53 0
62 -3 79 -27 20 -28 43 -25 36 5 -7 24 -68 62 -102 62 -15 0 -37 -7 -48 -15z"/>
<path d="M7597 1053 c-4 -3 -7 -17 -7 -30 0 -13 -8 -26 -17 -30 -32 -12 -44
-43 -18 -43 17 0 21 -60 5 -76 -5 -5 -12 -42 -16 -82 l-7 -72 47 0 c34 0 46 4
46 15 0 10 -10 15 -31 15 -31 0 -31 1 -25 38 24 143 31 162 61 162 22 0 40 22
28 34 -4 3 -17 6 -29 6 -21 0 -22 3 -14 26 6 14 10 30 10 35 0 10 -23 12 -33
2z"/>
<path d="M5620 975 c-7 -8 -17 -15 -22 -15 -15 0 -68 -57 -68 -74 0 -8 -4 -18
-10 -21 -25 -16 -8 -83 33 -129 23 -27 104 -28 119 -3 5 10 14 17 21 17 22 0
56 52 63 95 9 62 -3 104 -32 115 -13 5 -24 14 -24 20 0 16 -66 12 -80 -5z m85
-29 c0 0 8 -16 18 -34 18 -36 23 -72 8 -72 -5 0 -14 -13 -21 -30 -24 -59 -108
-81 -146 -39 -29 32 -23 99 13 139 35 40 59 51 98 43 17 -3 30 -6 30 -7z"/>
<path d="M5836 936 c-3 -30 -11 -67 -18 -83 -12 -29 -13 -35 -22 -95 -5 -33
-4 -38 13 -38 15 0 19 10 25 64 9 95 38 142 99 165 20 8 34 8 49 0 19 -10 20
-17 14 -82 -4 -40 -11 -76 -16 -81 -6 -6 -10 -23 -10 -38 0 -43 28 -36 35 10
4 20 11 50 16 66 14 45 11 135 -5 152 -19 18 -70 18 -86 -1 -7 -8 -18 -15 -25
-15 -7 0 -20 -10 -29 -22 -18 -24 -18 -21 -5 31 2 8 -3 16 -12 18 -13 3 -17
-8 -23 -51z"/>
<path d="M6428 982 c-1 -5 -16 -15 -32 -23 -34 -16 -75 -89 -76 -132 0 -34 15
-64 48 -95 21 -20 31 -22 66 -17 22 4 49 15 58 25 9 10 22 20 29 22 8 3 9 9 4
18 -7 11 -10 10 -20 -3 -17 -24 -64 -39 -98 -31 -21 4 -33 16 -44 41 -8 20
-11 39 -6 43 4 5 42 10 84 12 67 3 80 6 98 28 29 35 26 64 -10 94 -30 25 -93
36 -101 18z"/>
<path d="M6626 958 c-3 -18 -7 -51 -10 -72 -3 -22 -9 -42 -15 -45 -5 -3 -12
-32 -16 -63 -6 -48 -5 -58 8 -58 19 0 24 14 33 90 6 52 12 67 43 100 38 40 76
55 101 40 17 -11 17 -127 0 -144 -5 -5 -10 -27 -10 -49 0 -58 23 -41 35 26 6
30 13 59 18 63 4 4 7 31 7 59 0 38 -5 56 -18 68 -23 21 -78 22 -86 2 -3 -8
-12 -15 -20 -15 -8 0 -22 -10 -30 -22 -9 -12 -19 -19 -23 -15 -3 4 -1 13 5 19
17 17 15 48 -3 48 -8 0 -16 -13 -19 -32z"/>
<path d="M7090 981 c0 -5 -16 -15 -35 -21 -37 -12 -65 -51 -65 -90 0 -11 -4
-20 -10 -20 -32 0 20 -117 59 -131 30 -12 91 -1 98 17 3 8 11 14 18 14 16 0
30 18 21 27 -3 3 -16 -1 -29 -10 -13 -9 -40 -18 -59 -22 -42 -8 -75 16 -84 61
l-6 32 85 3 c75 4 88 7 106 28 28 32 26 69 -5 97 -25 24 -94 34 -94 15z"/>
<path d="M7285 930 c-4 -33 -11 -60 -16 -60 -5 0 -9 -11 -9 -25 0 -14 -5 -45
-12 -70 -13 -48 -7 -65 16 -46 8 7 18 40 22 77 6 58 11 70 44 104 35 35 56 44
103 41 14 -1 17 -10 17 -50 0 -27 -7 -65 -15 -84 -19 -46 -20 -97 -1 -97 7 0
16 14 20 30 11 57 19 188 12 214 -6 23 -12 26 -46 26 -22 0 -40 -4 -40 -10 0
-5 -13 -16 -30 -25 -30 -15 -30 -15 -30 10 0 15 -6 25 -14 25 -10 0 -16 -19
-21 -60z"/>
</g>
</svg>
